<?xml version="1.0" encoding="iso-8859-1"?>
<!-- Generator: Adobe Illustrator 23.0.3, SVG Export Plug-In . SVG Version: 6.00 Build 0)  -->
<svg version="1.1" id="Layer_1" xmlns="http://www.w3.org/2000/svg" xmlns:xlink="http://www.w3.org/1999/xlink" x="0px" y="0px"
	 viewBox="0 0 64 64" style="enable-background:new 0 0 64 64;" xml:space="preserve">
<g>
	<linearGradient id="SVGID_1_" gradientUnits="userSpaceOnUse" x1="32" y1="8.7872" x2="32" y2="55.119">
		<stop  offset="0" style="stop-color:#1A6DFF"/>
		<stop  offset="1" style="stop-color:#C822FF"/>
	</linearGradient>
	<path style="fill:url(#SVGID_1_);" d="M60,32.5c0-4.136-3.364-7.5-7.5-7.5c-1.782,0-3.463,0.616-4.811,1.75
		c-4.242-2.319-9.5-3.621-14.96-3.729l3.03-12.877c0.124-0.528,0.653-0.863,1.186-0.748l11.843,2.581l0.426-1.954L37.37,7.442
		c-1.588-0.347-3.187,0.66-3.559,2.244l-3.142,13.352c-5.244,0.189-10.273,1.478-14.358,3.711C14.963,25.616,13.282,25,11.5,25
		C7.364,25,4,28.364,4,32.5c0,2.393,1.17,4.657,3.093,6.06C7.031,39.05,7,39.532,7,40c0,9.374,11.215,17,25,17s25-7.626,25-17
		c0-0.468-0.031-0.95-0.093-1.44C58.83,37.157,60,34.893,60,32.5z M55.31,37.221c-0.358,0.213-0.546,0.626-0.472,1.036
		C54.947,38.864,55,39.435,55,40c0,8.271-10.318,15-23,15S9,48.271,9,40c0-0.565,0.053-1.136,0.163-1.743
		c0.074-0.41-0.114-0.823-0.472-1.036C7.006,36.215,6,34.451,6,32.5c0-3.033,2.467-5.5,5.5-5.5c1.499,0,2.901,0.596,3.948,1.677
		c0.32,0.33,0.826,0.4,1.224,0.167C20.902,26.365,26.346,25,32,25s11.098,1.365,15.328,3.844c0.398,0.234,0.903,0.164,1.224-0.167
		C49.599,27.596,51.001,27,52.5,27c3.033,0,5.5,2.467,5.5,5.5C58,34.451,56.994,36.215,55.31,37.221z"/>
	<g>
		<linearGradient id="SVGID_2_" gradientUnits="userSpaceOnUse" x1="49.5" y1="6.8298" x2="49.5" y2="15.2622">
			<stop  offset="0" style="stop-color:#6DC7FF"/>
			<stop  offset="1" style="stop-color:#E6ABFF"/>
		</linearGradient>
		<circle style="fill:url(#SVGID_2_);" cx="49.5" cy="11.5" r="4.5"/>
	</g>
	<linearGradient id="SVGID_3_" gradientUnits="userSpaceOnUse" x1="22" y1="33.1064" x2="22" y2="40.1918">
		<stop  offset="0" style="stop-color:#6DC7FF"/>
		<stop  offset="1" style="stop-color:#E6ABFF"/>
	</linearGradient>
	<circle style="fill:url(#SVGID_3_);" cx="22" cy="37" r="4"/>
	<linearGradient id="SVGID_4_" gradientUnits="userSpaceOnUse" x1="42" y1="33.1064" x2="42" y2="40.1918">
		<stop  offset="0" style="stop-color:#6DC7FF"/>
		<stop  offset="1" style="stop-color:#E6ABFF"/>
	</linearGradient>
	<circle style="fill:url(#SVGID_4_);" cx="42" cy="37" r="4"/>
	<linearGradient id="SVGID_5_" gradientUnits="userSpaceOnUse" x1="32.0811" y1="33.1064" x2="32.0811" y2="40.1918">
		<stop  offset="0" style="stop-color:#6DC7FF"/>
		<stop  offset="1" style="stop-color:#E6ABFF"/>
	</linearGradient>
	<path style="fill:url(#SVGID_5_);" d="M32,50c-3.604,0-7.03-1.031-9.647-2.902l-1.163,1.627C24.144,50.837,27.982,52,32,52
		c4.1,0,7.996-1.205,10.972-3.393l-1.185-1.611C39.152,48.933,35.676,50,32,50z"/>
</g>
</svg>